<svg xmlns="http://www.w3.org/2000/svg" width="1200" height="900" viewBox="0 0 1200 900" fill="none">
  <defs>
    <linearGradient id="hg" x1="0" y1="0" x2="1" y2="1">
      <stop offset="0%" stop-color="#5DADE2" stop-opacity="0.35"/>
      <stop offset="55%" stop-color="#2C3E50" stop-opacity="0.08"/>
      <stop offset="100%" stop-color="#5DADE2" stop-opacity="0.15"/>
    </linearGradient>
    <linearGradient id="fg" x1="1" y1="0" x2="0" y2="1">
      <stop offset="0%" stop-color="#FFFFFF" stop-opacity="0.9"/>
      <stop offset="100%" stop-color="#5DADE2" stop-opacity="0.12"/>
    </linearGradient>
  </defs>
  <rect width="1200" height="900" fill="#F8FAFC"/>
  <path d="M0 420 L480 180 L920 380 L1200 120 L1200 900 L0 900 Z" fill="url(#hg)"/>
  <rect x="640" y="120" width="480" height="520" rx="24" fill="url(#fg)" stroke="#5DADE2" stroke-width="2" stroke-opacity="0.35"/>
  <rect x="680" y="200" width="180" height="12" rx="6" fill="#2C3E50" fill-opacity="0.15"/>
  <rect x="680" y="230" width="320" height="12" rx="6" fill="#2C3E50" fill-opacity="0.1"/>
  <rect x="680" y="260" width="260" height="12" rx="6" fill="#2C3E50" fill-opacity="0.1"/>
  <circle cx="720" cy="420" r="48" stroke="#5DADE2" stroke-width="2.5" fill="none"/>
  <path d="M700 420 L714 434 L748 400" stroke="#5DADE2" stroke-width="2.5" stroke-linecap="round" stroke-linejoin="round"/>
  <rect x="800" y="380" width="240" height="160" rx="12" fill="#FFFFFF" stroke="#5DADE2" stroke-opacity="0.4" stroke-width="1.5"/>
  <path d="M820 520 L860 460 L900 500 L940 430 L980 480" stroke="#5DADE2" stroke-width="2" stroke-linecap="round" stroke-linejoin="round" fill="none" opacity="0.7"/>
  <line x1="120" y1="680" x2="520" y2="520" stroke="#2C3E50" stroke-opacity="0.12" stroke-width="2"/>
  <line x1="200" y1="900" x2="600" y2="640" stroke="#5DADE2" stroke-opacity="0.25" stroke-width="3"/>
</svg>
